<?xml version="1.0" encoding="UTF-8"?>
<!-- Created with Inkscape (http://www.inkscape.org/) -->
<svg width="500" height="500" version="1.1" viewBox="0 0 500 500" xmlns="http://www.w3.org/2000/svg">
 <g transform="translate(15.968 -28.942)">
  <path d="m184.03 450.31c-48.191-6.4568-83.861-26.417-111.47-62.379-4.9732-6.477-4.9732-6.477 4 1.8783 48.174 44.857 132.09 59.034 252.47 42.653 28.402-3.8649 26.839-3.704 24-2.4698-34.357 14.937-126.49 26.013-169 20.317zm-22-74.851c-104.76-10.77-148.29-56.041-135.59-141.01 3.1212-20.883 4.3121-23.989 3.784-9.8686-3.4989 93.537 101.46 139.37 296.31 129.39 23.151-1.1859 83.153-2.4575 82.5-1.7485-1.583 1.7182-70.824 13.375-105 17.678-51.739 6.5129-110.38 8.808-142 5.5576zm20.614-113.53c-91.062-4.4088-135.97-30.415-133.32-77.215 1.6381-29.027 19.996-60.851 48.049-83.296 10.415-8.333 10.793-7.5144 1.2266 2.6548-37.116 39.455-32.756 83.464 10.583 106.81 40.152 21.629 94.913 28.816 211.55 27.764 55.545-0.50102 103.99-0.0539 102.99 0.95044-0.57346 0.57346-9.3992 2.0916-36.296 6.2435-81.735 12.617-155.99 18.45-204.77 16.088zm-12.614-110.03c-63.955-6.9419-80.713-35.855-39.036-67.35 10.151-7.6708 12.168-8.6849 8.1544-4.0985-35.743 40.84 34.845 62.235 167.38 50.731 42.222-3.6646 77.932-5.096 68-2.7256-23.707 5.6582-96.418 18.462-122 21.484-20.394 2.4087-67.955 3.5385-82.5 1.9598z" fill="#4fabe3"/>
  <path d="m208.65 472.86c-25.723-2.7129-52.23-11.404-71.115-23.317-5.441-3.4322-4.0466-3.2161 5.9498 0.92186 46.067 19.069 131.13 17.553 194.05-3.4588 11.239-3.7529 9.0592-1.8821-7 6.0091-34.283 16.846-79.899 24.273-121.89 19.844zm8.3852-48.502c-84.63-7.5716-126.39-24.978-160.36-66.845-7.2177-8.8939-7.1184-9.8726 0.39288-3.8718 59.752 47.737 171.4 55.036 333.77 21.819 21.014-4.299 24.202-4.6303 24.202-2.515 0 4.874-31.145 39.454-36.902 40.972-4.4751 1.1803-52.277 6.4914-77.098 8.566-17.557 1.4675-74.377 2.7356-84 1.8747zm215.85-91.982c-2.8824-2.8824-18.724-3.3725-60.347-1.8673-226.32 8.1846-334.44-29.491-334.47-116.55-0.0035-9.6367 2.638-29.002 4.1643-30.528 0.16787-0.16787 0.31235 6.0698 0.32108 13.861 0.0951 84.921 118.96 110.63 344.98 74.619 33.046-5.265 36.831-5.579 43.588-3.6146 15.825 4.6004 18.786 22.609 8.7837 53.413-4.1538 12.792-4.4508 13.243-7.0253 10.668zm8.5538-116.56c-9.1632-4.0397-38.782-4.7531-118.34-2.8503-179.79 4.3004-273.91-34.813-227.56-94.569 1.3906-1.7928 1.4195-1.7106 0.37107 1.0559-20.615 54.397 92.805 70.049 262.63 36.243 47.624-9.4805 68.365 2.8252 84.12 49.91 4.1268 12.333 4.1002 12.555-1.2194 10.21zm-240.9-100.55c-44.399-3.8746-67.425-17.266-57.28-33.315 2.1761-3.4425 2.2185-3.4589 2.5839-1 2.4892 16.751 55.121 16.507 130.2-0.60413 58.778-13.397 81.36-9.1154 109.46 20.753 8.1049 8.6156 8.5939 9.773 3.3429 7.9131-8.3804-2.9684-27.772-2.3626-77.801 2.4305-39.546 3.7888-90.633 5.556-110.5 3.8223z" fill="#2a358f"/>
 </g>
</svg>
