<?xml version="1.0" encoding="UTF-8"?>
<!-- Created with Inkscape (http://www.inkscape.org/) -->
<svg width="500" height="500" version="1.1" viewBox="0 0 500 500" xmlns="http://www.w3.org/2000/svg">
 <g transform="translate(3.992 8.982)">
  <path d="m215 319.31c-1.925-0.2027-8.3275-1.2674-14.228-2.3659-5.9003-1.0986-15.35-3.5947-21-5.5471-5.6497-1.9523-13.197-5.1382-16.772-7.0796-3.575-1.9415-9.2-5.45-12.5-7.7966-3.3-2.3467-8.3245-6.3567-11.166-8.9112-2.8411-2.5545-7.5419-7.4494-10.446-10.878-3.687-4.3522-4.2406-5.3051-1.8344-3.1576 1.8954 1.6916 5.2799 4.4794 7.521 6.1953 2.2411 1.7158 7.4161 5.0874 11.5 7.4924 4.0838 2.405 11.27 6.0174 15.97 8.0276 4.6995 2.0102 12.35 4.7492 17 6.0866 4.6505 1.3374 13.18 3.363 18.955 4.5012s15.16 2.5312 20.856 3.0954c5.6958 0.56422 20.713 1.0259 33.371 1.0259 12.751 0 30.654-0.69113 40.144-1.5497 9.4208-0.85235 21.819-2.2024 27.553-3s11.133-1.4218 12-1.3869c0.89959 0.0362 0.503 0.49455-0.92407 1.068-1.375 0.55255-8.7066 2.5319-16.292 4.3985-7.5858 1.8666-20.636 4.5343-29 5.928-8.3642 1.3938-20.383 2.9821-26.708 3.5295s-18.025 0.9272-26 0.84388c-7.975-0.0833-16.075-0.31733-18-0.52003zm-17-57.944c-2.475-0.22935-9.675-1.1094-16-1.9556-6.325-0.84623-16-2.6016-21.5-3.9008s-13.375-3.5769-17.5-5.0616-10.2-4.0463-13.5-5.6924-8.7575-4.9484-12.128-7.3384c-3.3703-2.39-8.927-7.3994-12.348-11.132-4.1898-4.5712-7.6333-9.7247-10.549-15.787-2.6072-5.4215-5.0052-12.38-6.0311-17.5-1.1387-5.6836-1.6757-12.973-1.6206-22 0.04534-7.425 0.69224-16.875 1.4375-21l1.3551-7.5 0.65055 10.5c0.3578 5.775 1.3486 13.2 2.2017 16.5s3.3755 9.7266 5.6052 14.281c3.1185 6.3702 5.9431 10.2 12.24 16.597 4.5023 4.5736 11.07 10.25 14.594 12.613 3.5246 2.3638 11.4 6.6629 17.5 9.5534 6.1004 2.8906 16.267 6.8937 22.592 8.8958 6.325 2.0021 18.031 4.9637 26.013 6.5812 7.9821 1.6175 20.357 3.626 27.5 4.4633s22.786 2.0446 34.762 2.6828c16.6 0.88472 30.977 0.87975 60.5-0.0209 21.299-0.64976 44.013-1.3766 50.475-1.6151s11.75-0.0867 11.75 0.33747c0 0.42413-9.5625 2.4444-21.25 4.4895s-28.702 4.816-37.809 6.1575c-9.1077 1.3415-25.308 3.3803-36 4.5306-13.911 1.4966-27.831 2.1833-48.941 2.4144-16.225 0.17761-31.525 0.13528-34-0.0941zm1.5-88.374c-6.05-0.48042-15.664-1.5714-21.363-2.4244-5.6999-0.85299-14.734-2.6556-20.075-4.0059s-12.153-3.4109-15.137-4.5792c-2.9837-1.1683-8.2327-3.6871-11.664-5.5974s-8.9431-5.9763-12.247-9.0355c-4.2848-3.967-7.0748-7.721-9.7278-13.089l-3.7199-7.5267 0.0126-9.118c8e-3 -5.9093 0.67314-11.405 1.8896-15.618 1.0324-3.575 3.3551-9.7762 5.1617-13.78 1.8066-4.0042 5.3651-10.381 7.9079-14.171s7.6654-9.9817 11.384-13.759c3.7182-3.7776 8.7445-8.4181 11.17-10.312 3.9477-3.0832 3.7212-2.6937-2.163 3.7196-3.8725 4.2207-8.2508 10.437-10.658 15.132-2.2471 4.3826-4.6284 10.583-5.292 13.78s-1.0154 9.4498-0.78201 13.897c0.33727 6.4257 1.0804 9.4877 3.6197 14.914 2.1972 4.6953 5.154 8.7487 9.466 12.977 3.9382 3.8615 9.284 7.7162 14.372 10.363 4.4554 2.318 12.769 5.7753 18.474 7.683 5.7052 1.9077 17.123 4.8177 25.373 6.4666s21.075 3.7775 28.5 4.7302c11.509 1.4767 24.906 1.7876 90.855 2.1084 42.545 0.20695 77.182 0.54931 76.971 0.76079-0.21149 0.21149-7.5713 1.5087-16.355 2.8827-8.7839 1.374-22.496 3.4136-30.471 4.5325-7.975 1.1188-21.925 2.932-31 4.0291s-25.05 2.6886-35.5 3.5365-30.025 1.73-43.5 1.9604c-13.475 0.23034-29.45 0.0257-35.5-0.45469zm10-83.589c-2.75-0.18774-9.5-0.86203-15-1.4984s-13.818-2.2544-18.485-3.5955c-4.6668-1.3411-10.067-3.3813-12-4.5338-1.9332-1.1525-4.7936-3.2613-6.3564-4.6862-1.5629-1.425-3.7004-4.2604-4.75-6.301s-1.9084-5.093-1.9084-6.7832 1.1303-5.3037 2.5118-8.0299c1.3815-2.7263 4.909-7.3541 7.839-10.284 2.93-2.93 6.7555-6.3442 8.5012-7.5873l3.174-2.2601-2.513 4.7263c-1.6382 3.0811-2.5117 6.3279-2.5092 9.3273 2e-3 2.764 0.7668 5.8525 1.9149 7.7352 1.0511 1.7238 3.435 4.2965 5.2976 5.7172 1.8626 1.4207 6.0634 3.7695 9.3351 5.2196 3.2718 1.4501 10.535 3.6752 16.141 4.9446 5.6056 1.2694 16.14 2.8586 23.409 3.5315 8.395 0.77706 21.095 1.0177 34.808 0.65962 11.875-0.31009 31.716-1.4612 44.091-2.558 12.375-1.0968 29.7-2.2532 38.5-2.5699l16-0.57567-25 4.9919c-13.75 2.7455-32.875 6.3367-42.5 7.9804-9.625 1.6437-24.475 3.647-33 4.452-8.525 0.80492-21.575 1.6559-29 1.8911s-15.75 0.27403-18.5 0.08628z" fill="#4faae2"/>
  <path d="m85.871 466.95c-2.5462-0.41492-6.6512-1.6488-9.1224-2.7419-2.4712-1.0931-6.4142-3.7232-8.7624-5.8446s-5.3138-5.5117-6.5905-7.534c-1.2766-2.0223-3.3063-6.5248-4.5104-10.006-1.7662-5.1056-2.1851-8.5512-2.1676-17.829 0.01678-8.8701 0.49655-12.966 2.0979-17.913 1.1419-3.5269 3.708-8.7819 5.7026-11.678 1.9945-2.8959 5.9564-6.8659 8.8043-8.8222 3.0849-2.1191 7.9337-4.2341 11.996-5.2325 5.8218-1.4309 7.7774-1.4988 13.389-0.46496 3.614 0.6659 8.3533 2.12 10.532 3.2314 2.1785 1.1114 5.8602 3.7714 8.1816 5.9113 2.3214 2.1398 5.4148 6.0843 6.8741 8.7656s3.3336 7.761 4.165 11.288c0.83144 3.5274 1.5117 10.238 1.5117 14.913s-0.68028 11.386-1.5117 14.913c-0.83145 3.5274-2.7204 8.6341-4.1977 11.348-1.4773 2.7142-4.8621 6.8915-7.5219 9.2829-2.6598 2.3914-7.1766 5.2088-10.038 6.261s-7.2266 2.136-9.7016 2.4083c-2.475 0.27235-6.5832 0.15571-9.1294-0.25921zm13.53-14.349c1.8348-0.76665 4.5014-2.9217 5.9256-4.789 1.4243-1.8673 3.2836-6.0596 4.1318-9.3162 0.87886-3.3742 1.5422-10.111 1.5422-15.662 0-5.3574-0.4824-11.99-1.072-14.739-0.58961-2.7492-2.4175-6.856-4.062-9.1262-1.6445-2.2702-4.5226-4.768-6.3959-5.5506-1.8732-0.78269-5.4598-1.4231-7.9701-1.4231s-6.0611 0.62541-7.8905 1.3898c-1.8294 0.76439-4.3429 2.4519-5.5854 3.75-1.2425 1.2981-2.9068 3.8693-3.6983 5.7138-0.79152 1.8445-1.8685 7.132-2.3932 11.75-0.60688 5.3409-0.60516 11.467 0.0047 16.834 0.52733 4.6409 1.8384 10.153 2.9134 12.25 1.0751 2.0966 3.0112 4.7975 4.3025 6.002 1.2913 1.2045 3.4726 2.6384 4.8473 3.1866 1.3747 0.54817 4.6514 1.0252 7.2816 1.0601 2.6302 0.0349 6.2833-0.56386 8.1182-1.3305zm44.839-29.856 0.26062-43.25 19.5 0.0527c15.216 0.0411 20.722 0.41978 25.064 1.7238 3.0601 0.91911 7.4807 3.0597 9.8236 4.7569 2.7818 2.0151 5.0983 4.8867 6.6764 8.2762 1.6429 3.5287 2.4197 6.9835 2.4264 10.791 5e-3 3.0804-0.50238 7.1304-1.1283 9-0.62596 1.8696-2.2374 4.8794-3.5809 6.6886-1.3435 1.8092-4.2064 4.4564-6.3619 5.8829s-3.9191 3.1955-3.9191 3.9312c0 0.73574 4.0247 8.8884 8.9438 18.117l8.9438 16.779-8.6796 0.29237c-4.7738 0.16081-8.808-0.0642-8.9649-0.5s-3.8984-7.6549-8.3145-16.042l-8.0292-15.25h-15.899v32h-17.021zm41.086-3.7701c1.5537-0.75311 3.4662-2.6093 4.25-4.1249 0.78375-1.5156 1.425-5.3779 1.425-8.5828 0-3.662-0.57991-6.6551-1.5607-8.0554-0.85839-1.2255-2.861-2.9006-4.4503-3.7225-2.0279-1.0487-6.0356-1.4943-13.439-1.4943h-10.55v28.221l10.75-0.43603c6.1612-0.24991 11.956-1.0205 13.575-1.8053zm39.914 3.8521 0.26068-43.332 13.5-0.28803c7.425-0.15841 17.227 0.16459 21.783 0.71777 4.5556 0.55319 10.4 1.9423 12.988 3.0869s5.7665 3.0716 7.0644 4.2822c1.2979 1.2106 3.216 3.8707 4.2625 5.9113 1.23 2.3984 1.9027 5.7764 1.9027 9.5542 0 4.6983-0.55412 6.7157-2.8264 10.29-1.5545 2.4452-4.0295 5.0843-5.5 5.8648-1.4705 0.78044-2.6736 1.9876-2.6736 2.6826s0.86289 1.5375 1.9175 1.8722c1.0546 0.33473 3.0922 1.5326 4.5279 2.6619s3.4978 3.7928 4.5825 5.919c1.303 2.5541 1.9646 5.83 1.9501 9.6555-0.013 3.4221-0.76668 7.4291-1.843 9.7984-1.0016 2.2047-3.4834 5.4682-5.5153 7.2521-2.0318 1.784-5.365 4.0068-7.407 4.9396-3.0494 1.393-7.7797 1.7646-26.473 2.0798l-22.761 0.38382zm41.761 28.416c2.5372-1.2675 3.8849-2.8618 4.8993-5.7957 0.87828-2.5403 1.141-5.4245 0.70543-7.746-0.38164-2.0343-1.7588-4.9381-3.0604-6.4527l-2.3665-2.7539-25.178-0.66311v25.163l10.75-2e-3c8.2309-1e-3 11.57-0.41128 14.25-1.75zm0.23422-38.168 3.2658-2.9198-0.0535-5.611c-0.0451-4.731-0.47954-6.0374-2.7701-8.3302l-2.7166-2.7192-22.96-0.67211v23.172h21.968zm39.005 9.6698 0.26062-43.25h57l0.59138 13.5h-41.091v22h35v13h-35v25h41v13h-58.021zm71.761-0.25v-43.5h57v14h-40v21.953l34.5 0.54723v12l-34.5 0.54723v24.953h41v13h-58z" fill="#2b3690"/>
  <path d="m228.67 335.94c-3.7538-0.43627-10.365-1.5105-14.692-2.3872-4.3267-0.87669-11.38-2.7682-15.675-4.2034-4.2946-1.4352-10.846-4.1325-14.558-5.994s-6.75-3.5465-6.75-3.7444c0-0.19795 3.8272 0.92618 8.505 2.4981 4.6777 1.5719 14.015 3.848 20.75 5.058 10.124 1.819 16.142 2.2112 34.745 2.2645 12.89 0.0369 26.985-0.49247 33-1.2395 5.775-0.7172 17.078-2.6164 25.119-4.2204 8.0402-1.604 18.053-4.0069 22.25-5.3398 4.1972-1.3329 7.6314-2.2519 7.6314-2.0422s-3.0718 1.9281-6.8262 3.8188c-3.7544 1.8907-11.333 5.0064-16.842 6.9238-5.5086 1.9174-14.249 4.4006-19.424 5.5183-5.1745 1.1176-14.068 2.5076-19.764 3.0888-5.6958 0.58116-14.921 0.99752-20.5 0.92523-5.5792-0.0723-13.215-0.48836-16.969-0.92462zm3.325-37.553c-2.475-0.22642-10.35-1.096-17.5-1.9325s-18.122-2.6677-24.383-4.0695c-6.2608-1.4018-15.936-4.1228-21.5-6.0467s-13.807-5.4489-18.317-7.8333-10.81-6.0398-14-8.123-9.6522-7.6348-14.36-12.337-9.5843-10.023-10.836-11.824l-2.2755-3.2748 6.3358 4.7812c3.4847 2.6297 9.5473 6.4636 13.473 8.5199 3.9252 2.0563 11.251 5.3274 16.279 7.2692 5.028 1.9418 14.641 4.8524 21.363 6.4679 6.7218 1.6155 17.396 3.7415 23.721 4.7244 9.4858 1.4741 17.805 1.7832 47.5 1.7649 27.974-0.0172 39.344-0.41605 51-1.7888 8.25-0.97163 21.3-2.6755 29-3.7865s25.475-4.2644 39.5-7.0076c14.025-2.7433 26.288-5.2222 27.25-5.5087 1.109-0.33014 1.75 0.0172 1.75 0.94821 0 0.80806-3.0902 5.4509-6.8671 10.317-3.7769 4.8665-9.7394 11.578-13.25 14.914l-6.3829 6.0659-19 2.2362c-10.45 1.2299-26.2 2.8898-35 3.6887-8.8 0.79885-27.925 1.6309-42.5 1.849-14.575 0.21813-28.525 0.21135-31-0.0151zm168-71.618c-1.685-0.74165-10.487-0.9655-27-0.68662-13.475 0.22758-44.975 0.38158-70 0.34222-39.452-0.062-48.172-0.35914-65.602-2.2349-11.056-1.1898-26.356-3.3094-34-4.7102-7.6441-1.4008-18.909-3.8748-25.033-5.4977-6.1241-1.6229-14.74-4.28-19.146-5.9046-4.406-1.6246-11.77-4.8413-16.365-7.1483s-10.308-5.5357-12.696-7.1749c-2.388-1.6392-6.6331-5.0153-9.4335-7.5024-2.8004-2.4871-7.0628-6.8246-9.472-9.6387s-5.8662-8.2666-7.682-12.117-3.7972-9.25-4.4029-12c-0.6057-2.75-1.3372-7.475-1.6255-10.5s-0.14117-9.1 0.32697-13.5l0.85117-8 0.13987 6.6447c0.07693 3.6546 1.0786 9.7296 2.226 13.5 1.1474 3.7704 3.9094 9.6819 6.1378 13.137 2.2284 3.4547 6.3173 8.3182 9.0863 10.808 2.769 2.4896 8.0955 6.345 11.837 8.5675 3.7411 2.2225 10.055 5.365 14.032 6.9833 3.9766 1.6183 11.076 4.0342 15.776 5.3688 4.7001 1.3346 13.838 3.332 20.308 4.4386 6.4691 1.1066 19.069 2.5283 28 3.1592 10.043 0.70952 25.776 0.90617 41.238 0.51542 13.75-0.34748 30.4-1.0903 37-1.6507 6.6-0.56039 20.1-1.9348 30-3.0541 9.9-1.1194 23.85-2.8962 31-3.9485s20.2-3.0495 29-4.4383 17.575-2.5163 19.5-2.5057c1.925 0.0107 5.4277 0.89429 7.7838 1.9636 3.2703 1.4843 4.7438 2.9578 6.228 6.228 1.283 2.8268 1.9467 6.4945 1.9514 10.784 4e-3 3.575-0.68018 9.425-1.5203 13-0.84011 3.575-2.4688 9.0875-3.6192 12.25s-2.144 5.7215-2.2078 5.6866c-0.0638-0.0349-1.241-0.55856-2.616-1.1638zm3.5-90.409c-3.1089-0.86312-10.295-1.4092-19-1.444-7.7-0.0307-37.175 0.2515-65.5 0.62714-34.991 0.46405-57.11 0.31659-69-0.45998-9.625-0.62864-22.9-1.8274-29.5-2.6639-6.6-0.83653-16.317-2.393-21.593-3.4589-5.2763-1.0659-13.601-3.0976-18.5-4.5149-4.8987-1.4173-12.97-4.5643-17.935-6.9933s-11.521-6.6378-14.567-9.3528c-3.0462-2.7151-6.6327-6.9989-7.97-9.5197-1.3373-2.5208-2.7962-4.5832-3.2421-4.5832s-0.53262-0.45-0.1927-1 0.31351-1.4927-0.0587-2.095c-0.3722-0.60223-0.64865-3.8647-0.61432-7.25 0.0343-3.3853 0.27786-7.055 0.54119-8.155 0.26334-1.1 0.56948-2.1125 0.68031-2.25s0.25776-0.6625 0.32651-1.1667c0.0687-0.50417 0.4625-1.2542 0.875-1.6667s0.75 0.68945 0.75 2.4488 0.63127 4.7096 1.4028 6.5562c0.77156 1.8466 3.0964 5.232 5.1664 7.5232 2.0699 2.2912 5.6511 5.272 7.9582 6.624 2.3071 1.352 6.8972 3.5564 10.2 4.8986s10.453 3.3385 15.889 4.4364c5.4358 1.0979 16.563 2.5086 24.726 3.135 11.192 0.85871 19.678 0.85131 34.5-0.0301 10.811-0.64291 25.282-1.7812 32.157-2.5295s17.894-2.0922 24.486-2.9863c6.5922-0.89418 20.767-3.2101 31.5-5.1464 10.733-1.9363 23.564-4.1618 28.514-4.9455 6.8941-1.0915 10.602-1.1825 15.846-0.38898 3.7653 0.56975 8.1797 1.7256 9.8097 2.5685 1.63 0.84294 4.8048 3.1947 7.055 5.226 2.2502 2.0314 5.7621 5.9538 7.8042 8.7165 2.0421 2.7627 4.7253 7.0076 5.9627 9.4331s3.2615 7.1401 4.4979 10.477c1.2365 3.3368 2.5439 7.3044 2.9053 8.8169s0.31112 2.6942-0.11186 2.6259c-0.42298-0.0683-3.019-0.74877-5.769-1.5122zm-185.34-76.447c-4.5873-0.51016-11.337-1.5581-15-2.3287-3.6627-0.77063-9.3594-2.4122-12.659-3.6478-3.4904-1.307-7.5685-3.8064-9.75-5.9756-2.691-2.6759-3.75-4.5863-3.75-6.7648 0-1.6697 0.26939-3.7379 0.59865-4.5959 0.48858-1.2732 1.1421-1.0166 3.5543 1.3956 1.6256 1.6256 5.2629 3.6408 8.0828 4.4783 3.5322 1.049 9.5118 1.5226 19.222 1.5226 7.7521 0 17.908-0.46746 22.568-1.0388 4.6606-0.57134 13.841-1.9289 20.402-3.0167 6.5603-1.0879 21.003-3.9739 32.095-6.4135s24.174-4.7251 29.072-5.0789c6.444-0.46546 10.968-0.20473 16.37 0.94334 4.1056 0.87262 10.631 3.0906 14.5 4.9289 3.8694 1.8383 9.7749 5.6231 13.123 8.4108 3.3485 2.7877 7.5226 6.8796 9.2758 9.0932l3.1876 4.0247-3.7758-1.0586c-2.4008-0.67311-9.6027-0.82968-19.776-0.42993-8.8 0.34579-21.673 1.2766-28.606 2.0684-6.9335 0.79183-17.284 1.75-23 2.1294-5.7165 0.37932-12.419 0.86018-14.894 1.0686-2.475 0.2084-15.3 0.56663-28.5 0.79606s-27.753-2.53e-4 -32.341-0.51042z" fill="#29348e"/>
 </g>
</svg>
